<?xml version="1.0"?>
<svg width="289" height="108" xmlns="http://www.w3.org/2000/svg" xmlns:svg="http://www.w3.org/2000/svg">
 <!-- Created with SVG-edit - http://svg-edit.googlecode.com/ -->
 <defs>
  <linearGradient id="svg_1">
   <stop offset="0" stop-color="#000000"/>
   <stop offset="0.686218" stop-color="#ffffff"/>
  </linearGradient>
  <linearGradient y2="0" x2="1" y1="0" x1="0" id="svg_14">
   <stop offset="0" stop-color="#000000"/>
   <stop offset="1" stop-color="#ffffff"/>
  </linearGradient>
 </defs>
 <g>
  <title>Layer 1</title>
  <text stroke="#7f2727" transform="matrix(1.420304942966517,0,0,2.1242272316698205,-81.596848260218,-176.21992326481814) " font-weight="bold" font-style="italic" xml:space="preserve" text-anchor="middle" font-family="serif" font-size="24" id="svg_2" y="116.443448" x="159.895799" stroke-linecap="null" stroke-linejoin="null" stroke-dasharray="null" stroke-width="0" fill="#00007f">Dianet Ubillus Majo</text>
  <polygon stroke-width="0" stroke="url(#svg_1)" points="61.40047205798328,0 65.56523646228015,11.981475830078125 78.24728144519031,12.239921569824219 68.13921870104969,19.9033203125 71.81236018054187,32.044525146484375 61.40047205798328,24.799285888671875 50.988576306030154,32.044525146484375 54.661740673705935,19.9033203125 44.55367792956531,12.239921569824219 57.235715283080935,11.981475830078125 61.40047205798328,0 65.56523646228015,11.981475830078125 " strokeWidth="0" strokecolor="url(#svg_1)" fill="#00007f" orient="point" r2="7.085509" r="17.713774" point="5" shape="star" id="svg_3" cy="101" cx="146"/>
  <polygon id="svg_7" stroke-width="0" stroke="url(#svg_1)" points="18.400475872680545,76.19151306152344 22.56524027697742,88.17298889160156 35.247277630493045,88.43142700195312 25.13921488635242,96.09483337402344 28.81237162463367,108.23602294921875 18.400475872680545,100.99079895019531 7.98858012072742,108.23602294921875 11.66173685900867,96.09483337402344 1.5536741148680449,88.43142700195312 14.23571146838367,88.17298889160156 18.400475872680545,76.19151306152344 22.56524027697742,88.17298889160156 " strokeWidth="0" strokecolor="url(#svg_1)" fill="#00007f" orient="point" r2="7.085509" r="17.713774" point="5" shape="star" cy="101" cx="146"/>
  <rect stroke="url(#svg_14)" id="svg_15" height="6" width="228.000011" y="86.5" x="46.499989" stroke-linecap="null" stroke-linejoin="null" stroke-dasharray="null" stroke-width="null" fill="#00007f"/>
 </g>
</svg>